<svg width="11" height="11" viewBox="0 0 11 11" fill="none" xmlns="http://www.w3.org/2000/svg">
<path d="M4.05306 2.224C4.35206 1.349 5.56106 1.3225 5.91556 2.1445L5.94556 2.2245L6.34906 3.4045C6.44154 3.67512 6.59097 3.92276 6.78728 4.13071C6.98359 4.33867 7.22222 4.50211 7.48706 4.61L7.59556 4.6505L8.77556 5.0535C9.65056 5.3525 9.67706 6.5615 8.85556 6.916L8.77556 6.946L7.59556 7.3495C7.32485 7.44191 7.07712 7.59131 6.86907 7.78763C6.66103 7.98394 6.49751 8.2226 6.38956 8.4875L6.34906 8.5955L5.94606 9.776C5.64706 10.651 4.43806 10.6775 4.08406 9.856L4.05306 9.776L3.65006 8.596C3.55765 8.32529 3.40825 8.07755 3.21193 7.86951C3.01562 7.66146 2.77696 7.49795 2.51206 7.39L2.40406 7.3495L1.22406 6.9465C0.348564 6.6475 0.322064 5.4385 1.14406 5.0845L1.22406 5.0535L2.40406 4.6505C2.67468 4.55803 2.92232 4.4086 3.13028 4.21229C3.33823 4.01597 3.50167 3.77735 3.60956 3.5125L3.65006 3.4045L4.05306 2.224ZM8.99956 0.5C9.0931 0.5 9.18477 0.526239 9.26414 0.575736C9.34351 0.625232 9.40741 0.696001 9.44856 0.78L9.47256 0.8385L9.64756 1.3515L10.1611 1.5265C10.2548 1.55835 10.337 1.61731 10.3972 1.69591C10.4574 1.77451 10.4929 1.86921 10.4992 1.96801C10.5055 2.06681 10.4824 2.16527 10.4327 2.25089C10.383 2.33652 10.309 2.40547 10.2201 2.449L10.1611 2.473L9.64806 2.648L9.47306 3.1615C9.44116 3.25521 9.38216 3.33735 9.30353 3.3975C9.2249 3.45764 9.13018 3.4931 9.03138 3.49936C8.93259 3.50563 8.83415 3.48242 8.74856 3.43269C8.66296 3.38296 8.59405 3.30893 8.55056 3.22L8.52656 3.1615L8.35156 2.6485L7.83806 2.4735C7.74432 2.44165 7.66215 2.38269 7.60195 2.30409C7.54175 2.22549 7.50624 2.13079 7.49993 2.03199C7.49361 1.93319 7.51676 1.83473 7.56645 1.74911C7.61615 1.66348 7.69014 1.59453 7.77906 1.551L7.83806 1.527L8.35106 1.352L8.52606 0.8385C8.55978 0.739713 8.62357 0.653954 8.70848 0.593249C8.7934 0.532545 8.89518 0.499937 8.99956 0.5Z" fill="white"/>
</svg>
