<svg width="20" height="21" viewBox="0 0 20 21" fill="none" xmlns="http://www.w3.org/2000/svg">
<path d="M14.9502 15.5966C13.5257 16.6825 11.7911 17.284 10.0002 17.3133C4.16683 17.3133 0.833496 10.6466 0.833496 10.6466C1.87007 8.71489 3.30778 7.02715 5.05016 5.69665M8.25016 4.17998C8.82377 4.04571 9.41105 3.9786 10.0002 3.97998C15.8335 3.97998 19.1668 10.6466 19.1668 10.6466C18.661 11.593 18.0577 12.4839 17.3668 13.305M11.7668 12.4133C11.538 12.6589 11.262 12.8559 10.9553 12.9926C10.6486 13.1292 10.3176 13.2027 9.9819 13.2086C9.64623 13.2145 9.3128 13.1528 9.0015 13.0271C8.69021 12.9013 8.40743 12.7142 8.17003 12.4768C7.93264 12.2394 7.74549 11.9566 7.61975 11.6453C7.49402 11.334 7.43227 11.0006 7.43819 10.6649C7.44411 10.3292 7.51759 9.99818 7.65423 9.69152C7.79087 9.38486 7.98787 9.10885 8.2335 8.87998M0.833496 1.47998L19.1668 19.8133" stroke="white" stroke-opacity="0.5" stroke-width="1.5" stroke-linecap="round" stroke-linejoin="round"/>
</svg>
