<svg xmlns="http://www.w3.org/2000/svg" xmlns:xlink="http://www.w3.org/1999/xlink" width="480" zoomAndPan="magnify" viewBox="0 0 360 359.999987" height="480" preserveAspectRatio="xMidYMid meet" version="1.0"><rect x="-36" width="432" fill="#ffffff" y="-35.999999" height="431.999984" fill-opacity="1"/><rect x="-36" width="432" fill="#000000" y="-35.999999" height="431.999984" fill-opacity="1"/><path stroke-linecap="round" transform="matrix(0.62439, 0, 0, 0.62439, -459.400157, -459.400164)" fill="none" stroke-linejoin="round" d="M 1130.312927 980.04743 L 1023.177042 1229.728783 L 916.153767 979.127782 " stroke="#ffffff" stroke-width="16" stroke-opacity="1" stroke-miterlimit="4"/><path stroke-linecap="round" transform="matrix(0.62439, 0, 0, 0.62439, -459.400157, -459.400164)" fill="none" stroke-linejoin="round" d="M 1227.207559 1058.899441 L 1023.252115 1239.507083 L 819.284159 1057.979793 " stroke="#ffffff" stroke-width="24" stroke-opacity="1" stroke-miterlimit="4"/><path stroke-linecap="round" transform="matrix(0.62439, 0, 0, 0.62439, -459.400157, -459.400164)" fill="none" stroke-linejoin="round" d="M 820.285137 1056.127984 L 1024.253093 751.261485 L 1228.208537 1057.047633 " stroke="#ffffff" stroke-width="24" stroke-opacity="1" stroke-miterlimit="4"/><path stroke-linecap="round" transform="matrix(0.62439, 0, 0, 0.62439, -459.400157, -459.400164)" fill="none" stroke-linejoin="round" d="M 1022.188577 814.15416 L 819.947307 1118.858 L 1022.188577 1299.74091 L 1226.41929 1118.858 Z M 1022.188577 814.15416 " stroke="#ffffff" stroke-width="20" stroke-opacity="1" stroke-miterlimit="4"/></svg>